<svg width="941" height="190" viewBox="0 0 941 190" fill="none" xmlns="http://www.w3.org/2000/svg">
<rect x="3.53609" width="93.9534" height="164.634" rx="17.408" transform="matrix(0.707218 -0.706996 0.707218 0.706996 1.0353 72.4598)" fill="#E0EBE1" stroke="#545351" stroke-width="5"/>
<rect x="-3.53609" width="93.5101" height="164.634" rx="17.408" transform="matrix(-0.707218 -0.706996 -0.707218 0.706996 233.963 67.5698)" fill="#FCE3D5" stroke="#545351" stroke-width="5"/>
<path d="M120.019 53.8854L53.9778 119.906L108.416 174.327C114.86 180.769 125.309 180.769 131.754 174.327L186.126 119.972L120.019 53.8854Z" fill="#D2D4AC" stroke="#545351" stroke-width="5"/>
<path d="M15.8475 57.6523L57.67 15.8429C64.4694 9.04571 75.4935 9.04571 82.2928 15.8429L186.414 119.931L132.28 174.048C125.481 180.846 114.457 180.845 107.657 174.048L15.8475 82.2674C9.04815 75.4702 9.04815 64.4495 15.8475 57.6523Z" stroke="#545351" stroke-width="5"/>
<path d="M887.873 116.479C882.989 116.479 880.217 113.311 880.217 108.427C880.217 97.8672 891.173 76.8792 898.301 60.3792C899.489 56.9472 901.073 52.8552 901.073 51.1392C901.073 49.1592 900.281 48.6312 899.093 48.6312C894.605 48.6312 887.873 57.2112 883.385 65.1312H880.613C886.025 54.7032 895.001 43.7472 903.317 43.7472C906.749 43.7472 908.465 46.5192 908.465 49.8192C908.465 52.4592 907.145 56.0232 905.297 60.6432C897.905 78.8592 888.665 97.6032 888.137 105.655C887.873 109.087 889.193 110.539 891.041 110.539C896.849 110.539 905.297 102.355 915.197 84.6672C921.401 73.5792 930.245 55.4952 930.905 45.3312H940.541L921.137 101.695C920.477 103.543 919.421 106.579 919.421 108.295C919.421 110.275 919.949 111.463 922.061 111.463C927.473 111.463 933.413 102.487 938.033 92.4552H940.805C936.185 103.807 927.737 116.611 918.893 116.611C913.745 116.611 911.897 113.707 911.897 109.615C911.897 107.371 913.085 104.467 914.141 101.563L923.513 75.8232H922.457C907.145 105.655 896.585 116.479 887.873 116.479Z" fill="#3C3A30"/>
<path d="M837.494 116.479C827.726 116.479 822.182 108.691 822.182 96.4152C822.182 71.3352 841.19 43.4832 858.746 43.4832C868.514 43.4832 874.322 51.7992 874.322 64.0752C874.322 89.0232 855.182 116.479 837.494 116.479ZM839.606 111.991C851.75 111.991 866.666 85.9872 866.666 63.6792C866.666 54.4392 863.63 47.9712 856.634 47.9712C844.49 47.9712 829.838 74.5032 829.838 96.6792C829.838 105.787 832.61 111.991 839.606 111.991Z" fill="#3C3A30"/>
<path d="M804.821 68.1672L794.261 102.619C791.885 110.407 791.489 111.991 804.161 111.991L803.237 114.763H770.633L771.425 111.991C781.457 111.991 783.965 110.407 786.341 102.619L796.901 68.2992L788.321 21.5712C786.869 13.5192 784.757 11.9352 777.497 11.9352L778.289 9.16321H807.593L806.669 11.9352C795.581 11.9352 795.185 13.6512 796.505 21.5712L803.501 61.9632H804.161L835.841 19.3272C840.593 12.8592 842.309 11.9352 829.241 11.9352L830.165 9.16321H857.489L856.697 11.9352C851.021 11.9352 846.533 12.5952 841.517 19.3272L804.821 68.1672Z" fill="#3C3A30"/>
<path d="M707.96 106.579H721.556C734.888 106.579 740.696 109.747 740.696 119.515C740.696 132.715 726.572 145.915 706.376 145.915C693.704 145.915 682.484 141.031 682.484 129.943C682.484 121.495 688.688 116.479 695.684 112.387C690.536 110.539 688.688 106.975 688.688 102.751C688.688 97.6032 692.252 93.3792 697.268 89.5512C691.988 85.0632 688.952 77.8032 688.952 68.8272C688.952 53.9112 697.4 43.2192 710.204 43.2192C714.56 43.2192 718.388 44.4072 721.556 46.6512C726.572 44.1432 731.588 42.8232 735.812 42.8232C738.848 42.8232 739.508 44.1432 739.508 45.8592C739.508 47.8392 738.056 49.1592 735.152 49.1592C730.664 49.1592 727.496 48.1032 723.932 48.7632C728.552 53.2512 731.324 60.2472 731.324 68.6952C731.324 83.6112 722.876 94.1712 710.204 94.1712C706.244 94.1712 702.68 93.1152 699.776 91.3992C696.608 94.1712 694.628 96.5472 694.628 99.5832C694.628 103.147 695.156 106.579 707.96 106.579ZM708.752 47.4432C700.04 47.4432 696.608 56.4192 696.608 65.7912C696.608 76.6152 700.7 89.9472 711.656 89.9472C719.84 89.9472 723.668 82.5552 723.668 72.3912C723.668 61.0392 719.18 47.4432 708.752 47.4432ZM708.092 139.711C725.12 139.711 735.548 130.339 735.548 121.759C735.548 115.423 731.588 113.971 721.424 113.971H707.3C704.396 113.971 701.888 113.839 699.776 113.443C693.836 117.271 688.82 122.155 688.82 127.699C688.82 134.035 694.892 139.711 708.092 139.711Z" fill="#3C3A30"/>
<path d="M624.421 114.763V111.991C631.945 111.991 633.001 110.275 633.001 102.091V58.1352C633.001 49.8192 633.133 48.3672 625.345 51.5352L624.289 48.8952L638.545 43.0872L640.261 44.5392V55.6272H640.657C646.333 48.2352 651.613 43.0872 659.533 43.0872C668.905 43.0872 672.865 50.2152 672.865 60.9072V102.091C672.865 110.275 673.789 111.991 681.313 111.991V114.763H657.289V111.991C664.681 111.991 665.605 110.275 665.605 102.091V61.3032C665.605 53.3832 662.305 49.6872 656.893 49.6872C650.557 49.6872 645.541 54.0432 640.261 60.1152V102.091C640.261 110.275 641.185 111.991 648.577 111.991V114.763H624.421Z" fill="#3C3A30"/>
<path d="M604.44 27.3792C600.744 27.3792 597.972 24.6072 597.972 21.1752C597.972 17.6112 600.744 14.9712 604.44 14.9712C608.004 14.9712 610.776 17.6112 610.776 21.1752C610.776 24.6072 608.004 27.3792 604.44 27.3792ZM609.324 44.5392V102.091C609.324 110.275 610.248 111.991 618.036 111.991V114.763H593.352V111.991C601.008 111.991 602.064 110.275 602.064 102.091V58.1352C602.064 49.8192 602.064 48.3672 594.672 51.2712L593.616 48.6312L603.252 44.8032L607.74 43.0872L609.324 44.5392Z" fill="#3C3A30"/>
<path d="M578.011 60.7752V102.091C578.011 110.275 578.935 111.991 586.459 111.991V114.763H562.567V111.991C569.827 111.991 570.751 110.275 570.751 102.091V61.1712C570.751 53.2512 567.715 49.6872 562.435 49.6872C556.891 49.6872 552.271 53.6472 547.651 59.5872V60.7752V102.091C547.651 110.275 548.575 111.991 555.835 111.991V114.763H532.207V111.991C539.467 111.991 540.391 110.275 540.391 102.091V61.1712C540.391 53.2512 537.355 49.6872 532.075 49.6872C526.399 49.6872 521.647 53.9112 516.895 60.1152V102.091C516.895 110.275 517.819 111.991 525.079 111.991V114.763H501.055V111.991C508.711 111.991 509.635 110.275 509.635 102.091V58.2672C509.635 49.9512 509.767 48.4992 502.111 51.7992L500.923 49.1592L510.955 44.8032L515.047 43.0872L516.895 44.5392V55.6272H517.291C522.043 48.3672 527.323 43.0872 534.979 43.0872C542.371 43.0872 546.199 47.9712 547.255 55.6272H547.651C552.403 48.3672 557.551 43.0872 565.339 43.0872C574.315 43.0872 578.011 50.2152 578.011 60.7752Z" fill="#3C3A30"/>
<path d="M469.174 116.875C454.522 116.875 444.358 101.035 444.358 80.3112C444.358 59.8512 453.334 43.0872 469.174 43.0872C483.694 43.0872 493.858 58.9272 493.858 79.6512C493.858 100.111 484.882 116.875 469.174 116.875ZM470.89 112.255C481.582 112.255 486.202 98.6592 486.202 85.3272C486.202 67.3752 479.998 47.7072 467.458 47.7072C456.634 47.7072 452.014 61.3032 452.014 74.7672C452.014 92.7192 458.218 112.255 470.89 112.255Z" fill="#3C3A30"/>
<path d="M417.406 116.875C403.678 116.875 395.89 101.695 395.89 80.9712C395.89 59.7192 404.074 43.0872 419.254 43.0872C429.286 43.0872 435.358 50.4792 435.358 59.3232C435.358 64.2072 433.51 66.8472 430.078 66.8472C426.91 66.8472 425.59 64.6032 425.59 62.2272C425.59 60.2472 426.514 57.7392 426.514 54.9672C426.514 50.2152 423.742 47.5752 419.122 47.5752C408.034 47.5752 403.546 63.0192 403.546 78.1992C403.546 95.6232 409.354 110.011 419.782 110.011C425.458 110.011 432.454 104.995 434.698 86.6472H437.47C436.282 107.899 427.438 116.875 417.406 116.875Z" fill="#3C3A30"/>
<path d="M383.163 86.9112H385.935C383.823 107.899 375.243 116.875 364.683 116.875C351.087 116.875 343.167 101.959 343.167 81.1032C343.167 60.1152 351.351 43.0872 365.211 43.0872C377.883 43.0872 385.143 56.4192 385.143 76.0872H350.823V78.5952C350.823 95.8872 356.631 110.143 367.059 110.143C373.131 110.143 380.127 104.995 383.163 86.9112ZM365.343 47.5752C356.763 47.5752 352.275 58.6632 351.087 71.5992H377.355C377.355 59.5872 374.187 47.5752 365.343 47.5752Z" fill="#3C3A30"/>
<path d="M298 114.763H265V111.991C277.54 111.991 278.728 110.143 278.728 102.091V21.8352C278.728 13.7832 277.54 11.9352 265 11.9352V9.16321H299.32C316.876 9.16321 329.68 17.4792 329.68 35.2992C329.68 49.8192 320.44 58.6632 308.164 60.2472V60.6432C323.608 61.6992 334.828 72.1272 334.828 86.5152C334.828 107.767 317.272 114.763 298 114.763ZM286.78 17.8752V57.8712C290.608 58.3992 294.568 58.3992 298.528 58.3992C309.748 58.3992 321.364 51.5352 321.364 35.4312C321.364 19.7232 309.748 13.6512 298.528 13.6512C295.492 13.6512 292.456 13.7832 289.684 14.3112C287.704 14.7072 286.78 15.8952 286.78 17.8752ZM286.78 63.4152V106.051C286.78 109.483 290.476 110.275 297.472 110.275C311.068 110.275 326.248 105.655 326.248 86.6472C326.248 67.7712 308.56 62.8872 298.528 62.8872C294.436 62.8872 290.608 62.8872 286.78 63.4152Z" fill="#3C3A30"/>
<path d="M280 146.687H284.441V176.326H302.113V180.066H280V146.687Z" fill="#3C3A30"/>
<path d="M341.791 166.275H353.104L347.541 150.707H347.447L341.791 166.275ZM345.11 146.687H350.019L363.062 180.066H358.153L354.507 170.015H340.388L336.648 180.066H332.113L345.11 146.687Z" fill="#3C3A30"/>
<path d="M397.503 161.039H406.385C408.91 161.039 410.718 160.603 411.808 159.73C412.93 158.826 413.491 157.486 413.491 155.709C413.491 154.525 413.304 153.59 412.93 152.904C412.556 152.219 412.042 151.689 411.388 151.315C410.733 150.941 409.97 150.707 409.097 150.614C408.255 150.489 407.351 150.427 406.385 150.427H397.503V161.039ZM393.062 146.687H405.17C405.887 146.687 406.65 146.702 407.461 146.733C408.302 146.733 409.128 146.78 409.938 146.874C410.749 146.936 411.497 147.045 412.182 147.201C412.899 147.357 413.507 147.59 414.006 147.902C415.096 148.557 416.016 149.46 416.764 150.614C417.543 151.767 417.933 153.185 417.933 154.868C417.933 156.644 417.496 158.187 416.624 159.496C415.782 160.774 414.567 161.725 412.977 162.348V162.441C415.034 162.878 416.608 163.813 417.699 165.246C418.79 166.68 419.335 168.425 419.335 170.482C419.335 171.698 419.117 172.882 418.681 174.036C418.244 175.189 417.59 176.217 416.717 177.121C415.876 177.994 414.816 178.711 413.538 179.272C412.291 179.801 410.842 180.066 409.19 180.066H393.062V146.687ZM397.503 176.326H408.629C410.593 176.326 412.12 175.796 413.211 174.737C414.333 173.677 414.894 172.212 414.894 170.342C414.894 169.251 414.691 168.348 414.286 167.631C413.881 166.914 413.336 166.353 412.65 165.948C411.995 165.511 411.232 165.215 410.359 165.059C409.486 164.872 408.583 164.779 407.648 164.779H397.503V176.326Z" fill="#3C3A30"/>
<path d="M470.56 156.481C470.31 154.081 469.438 152.351 467.942 151.292C466.477 150.201 464.591 149.655 462.285 149.655C461.35 149.655 460.43 149.749 459.527 149.936C458.623 150.123 457.812 150.434 457.095 150.871C456.41 151.307 455.849 151.899 455.412 152.647C455.007 153.364 454.805 154.268 454.805 155.359C454.805 156.387 455.101 157.229 455.693 157.883C456.316 158.507 457.127 159.021 458.124 159.426C459.152 159.831 460.306 160.174 461.584 160.455C462.861 160.704 464.155 160.984 465.464 161.296C466.804 161.608 468.113 161.982 469.391 162.418C470.669 162.823 471.806 163.384 472.804 164.101C473.832 164.818 474.642 165.722 475.235 166.813C475.858 167.903 476.17 169.275 476.17 170.927C476.17 172.703 475.764 174.23 474.954 175.508C474.175 176.755 473.162 177.783 471.915 178.594C470.669 179.373 469.266 179.934 467.708 180.277C466.181 180.651 464.653 180.838 463.126 180.838C461.256 180.838 459.48 180.604 457.797 180.136C456.145 179.669 454.68 178.968 453.402 178.033C452.156 177.066 451.158 175.851 450.41 174.386C449.693 172.89 449.335 171.129 449.335 169.103H453.542C453.542 170.506 453.807 171.721 454.337 172.75C454.898 173.747 455.615 174.573 456.488 175.228C457.392 175.882 458.436 176.365 459.62 176.677C460.804 176.989 462.02 177.144 463.267 177.144C464.264 177.144 465.261 177.051 466.259 176.864C467.287 176.677 468.206 176.365 469.017 175.929C469.827 175.461 470.482 174.838 470.98 174.059C471.479 173.28 471.728 172.282 471.728 171.067C471.728 169.914 471.417 168.979 470.793 168.262C470.201 167.545 469.391 166.968 468.362 166.532C467.365 166.065 466.227 165.691 464.95 165.41C463.672 165.13 462.363 164.849 461.023 164.569C459.714 164.257 458.42 163.914 457.142 163.54C455.864 163.135 454.711 162.621 453.683 161.997C452.685 161.343 451.875 160.517 451.252 159.52C450.66 158.491 450.363 157.213 450.363 155.686C450.363 154.003 450.706 152.554 451.392 151.338C452.078 150.092 452.981 149.079 454.103 148.3C455.257 147.489 456.55 146.897 457.984 146.523C459.449 146.118 460.945 145.915 462.472 145.915C464.186 145.915 465.775 146.118 467.24 146.523C468.705 146.928 469.983 147.567 471.074 148.44C472.196 149.312 473.068 150.419 473.692 151.759C474.346 153.068 474.705 154.642 474.767 156.481H470.56Z" fill="#3C3A30"/>
</svg>
