<svg width="478" height="93" viewBox="0 0 478 93" fill="none" xmlns="http://www.w3.org/2000/svg">
<rect width="47.9808" height="82.2528" rx="9.66592" transform="matrix(-0.707218 -0.706996 -0.707218 0.706996 116.372 33.9756)" fill="#FFFAF3"/>
<rect x="3.41795" width="43.1478" height="77.4199" rx="7.24944" transform="matrix(0.707218 -0.706996 0.707218 0.706996 1.00072 36.3388)" fill="#3C3A30" fill-opacity="0.75" stroke="#EFEFEF" stroke-width="4.83296"/>
<path d="M244.07 76.2107C243.949 75.0471 243.526 74.2083 242.8 73.6945C242.09 73.1656 241.176 72.9011 240.058 72.9011C239.604 72.9011 239.158 72.9465 238.72 73.0371C238.282 73.1278 237.889 73.2789 237.541 73.4905C237.209 73.7021 236.937 73.9892 236.725 74.3519C236.529 74.6995 236.431 75.1377 236.431 75.6667C236.431 76.1654 236.574 76.5734 236.861 76.8907C237.164 77.193 237.556 77.4423 238.04 77.6388C238.539 77.8353 239.098 78.0015 239.717 78.1375C240.337 78.2584 240.964 78.3944 241.599 78.5455C242.249 78.6967 242.884 78.878 243.503 79.0896C244.123 79.286 244.674 79.5581 245.158 79.9056C245.657 80.2532 246.05 80.6915 246.337 81.2204C246.639 81.7493 246.79 82.4143 246.79 83.2152C246.79 84.0766 246.594 84.8171 246.201 85.4367C245.823 86.0412 245.332 86.5399 244.727 86.9328C244.123 87.3106 243.443 87.5827 242.687 87.7489C241.947 87.9302 241.206 88.0209 240.466 88.0209C239.559 88.0209 238.697 87.9076 237.881 87.6809C237.08 87.4542 236.37 87.1142 235.751 86.6608C235.146 86.1923 234.662 85.603 234.3 84.8927C233.952 84.1673 233.778 83.3135 233.778 82.3312H235.819C235.819 83.0112 235.947 83.6006 236.204 84.0993C236.476 84.5829 236.823 84.9834 237.247 85.3007C237.685 85.6181 238.191 85.8523 238.765 86.0034C239.34 86.1546 239.929 86.2301 240.534 86.2301C241.017 86.2301 241.501 86.1848 241.984 86.0941C242.483 86.0034 242.929 85.8523 243.322 85.6407C243.715 85.4141 244.032 85.1118 244.274 84.734C244.516 84.3562 244.637 83.8726 244.637 83.2832C244.637 82.7241 244.485 82.2707 244.183 81.9231C243.896 81.5755 243.503 81.296 243.004 81.0844C242.521 80.8577 241.969 80.6764 241.35 80.5404C240.73 80.4043 240.095 80.2683 239.445 80.1323C238.811 79.9812 238.184 79.815 237.564 79.6336C236.944 79.4372 236.385 79.1878 235.887 78.8856C235.403 78.5682 235.01 78.1677 234.708 77.6841C234.421 77.1854 234.277 76.5658 234.277 75.8253C234.277 75.0093 234.443 74.3066 234.776 73.7172C235.108 73.1127 235.547 72.6215 236.091 72.2437C236.65 71.8508 237.277 71.5637 237.972 71.3823C238.682 71.1859 239.408 71.0876 240.148 71.0876C240.979 71.0876 241.75 71.1859 242.46 71.3823C243.171 71.5788 243.79 71.8886 244.319 72.3117C244.863 72.7349 245.286 73.2714 245.589 73.9212C245.906 74.5559 246.08 75.3191 246.11 76.2107H244.07Z" fill="white"/>
<path d="M209.066 78.4323H213.373C214.597 78.4323 215.473 78.2208 216.002 77.7976C216.546 77.3594 216.818 76.7095 216.818 75.8481C216.818 75.2739 216.728 74.8205 216.546 74.488C216.365 74.1556 216.116 73.8987 215.798 73.7173C215.481 73.536 215.111 73.4226 214.688 73.3773C214.279 73.3168 213.841 73.2866 213.373 73.2866H209.066V78.4323ZM206.912 71.4731H212.783C213.131 71.4731 213.501 71.4807 213.894 71.4958C214.302 71.4958 214.703 71.5185 215.096 71.5638C215.488 71.594 215.851 71.6469 216.184 71.7225C216.531 71.7981 216.826 71.9114 217.068 72.0625C217.597 72.3799 218.042 72.8181 218.405 73.3773C218.783 73.9364 218.972 74.624 218.972 75.4401C218.972 76.3015 218.76 77.0496 218.337 77.6843C217.929 78.3039 217.34 78.7648 216.569 79.067V79.1124C217.566 79.324 218.33 79.7773 218.859 80.4725C219.387 81.1677 219.652 82.0139 219.652 83.0113C219.652 83.6007 219.546 84.175 219.335 84.7341C219.123 85.2933 218.806 85.792 218.382 86.2303C217.974 86.6534 217.461 87.001 216.841 87.273C216.237 87.5299 215.534 87.6584 214.733 87.6584H206.912V71.4731ZM209.066 85.8449H214.461C215.413 85.8449 216.153 85.588 216.682 85.0742C217.226 84.5603 217.498 83.8501 217.498 82.9433C217.498 82.4144 217.4 81.9762 217.204 81.6286C217.007 81.281 216.743 81.009 216.41 80.8125C216.093 80.6009 215.723 80.4574 215.3 80.3818C214.876 80.2911 214.438 80.2458 213.985 80.2458H209.066V85.8449Z" fill="white"/>
<path d="M182.639 80.9712H188.125L185.428 73.4226H185.382L182.639 80.9712ZM184.249 71.4731H186.629L192.954 87.6584H190.573L188.805 82.7847H181.959L180.146 87.6584H177.947L184.249 71.4731Z" fill="white"/>
<path d="M153 71.4731H155.153V85.8449H163.722V87.6584H153V71.4731Z" fill="white"/>
<path d="M452.334 56.143C449.966 56.143 448.622 54.6069 448.622 52.2387C448.622 47.1183 453.934 36.9416 457.391 28.941C457.967 27.2769 458.735 25.2928 458.735 24.4607C458.735 23.5007 458.351 23.2446 457.775 23.2446C455.598 23.2446 452.334 27.4049 450.158 31.2452H448.814C451.438 26.1888 455.791 20.8765 459.823 20.8765C461.487 20.8765 462.319 22.2206 462.319 23.8207C462.319 25.1008 461.679 26.8289 460.783 29.0691C457.199 37.9017 452.718 46.9903 452.462 50.8946C452.334 52.5587 452.974 53.2628 453.87 53.2628C456.687 53.2628 460.783 49.2945 465.583 40.7179C468.591 35.3415 472.88 26.5729 473.2 21.6445H477.872L468.463 48.9745C468.143 49.8705 467.631 51.3426 467.631 52.1747C467.631 53.1348 467.887 53.7108 468.911 53.7108C471.536 53.7108 474.416 49.3585 476.656 44.4942H478C475.76 49.9985 471.664 56.207 467.375 56.207C464.879 56.207 463.983 54.7989 463.983 52.8147C463.983 51.7267 464.559 50.3186 465.071 48.9105L469.615 36.4296H469.103C461.679 50.8946 456.559 56.143 452.334 56.143Z" fill="white"/>
<path d="M427.906 56.1431C423.17 56.1431 420.482 52.3668 420.482 46.4144C420.482 34.2535 429.698 20.7485 438.211 20.7485C442.947 20.7485 445.763 24.7808 445.763 30.7332C445.763 42.8301 436.483 56.1431 427.906 56.1431ZM428.93 53.9669C434.819 53.9669 442.051 41.358 442.051 30.5412C442.051 26.0609 440.579 22.9247 437.187 22.9247C431.298 22.9247 424.194 35.7896 424.194 46.5424C424.194 50.9587 425.538 53.9669 428.93 53.9669Z" fill="white"/>
<path d="M412.064 32.7175L406.944 49.4227C405.792 53.1989 405.599 53.967 411.744 53.967L411.296 55.3111H395.487L395.871 53.967C400.735 53.967 401.951 53.1989 403.103 49.4227L408.224 32.7815L404.063 10.1238C403.359 6.21957 402.335 5.45152 398.815 5.45152L399.199 4.10742H413.408L412.96 5.45152C407.584 5.45152 407.392 6.28358 408.032 10.1238L411.424 29.7092H411.744L427.105 9.03577C429.409 5.89955 430.241 5.45152 423.905 5.45152L424.353 4.10742H437.602L437.218 5.45152C434.466 5.45152 432.289 5.77154 429.857 9.03577L412.064 32.7175Z" fill="white"/>
<path d="M360.249 51.3429H366.841C373.306 51.3429 376.122 52.879 376.122 57.6154C376.122 64.0158 369.273 70.4163 359.481 70.4163C353.336 70.4163 347.896 68.0481 347.896 62.6717C347.896 58.5754 350.904 56.1433 354.296 54.1591C351.8 53.2631 350.904 51.5349 350.904 49.4868C350.904 46.9906 352.632 44.9425 355.064 43.0863C352.504 40.9102 351.032 37.3899 351.032 33.0376C351.032 25.8051 355.128 20.6207 361.337 20.6207C363.449 20.6207 365.305 21.1968 366.841 22.2848C369.273 21.0688 371.706 20.4287 373.754 20.4287C375.226 20.4287 375.546 21.0688 375.546 21.9008C375.546 22.8609 374.842 23.5009 373.434 23.5009C371.258 23.5009 369.721 22.9889 367.993 23.3089C370.233 25.4851 371.578 28.8773 371.578 32.9736C371.578 40.2061 367.481 45.3265 361.337 45.3265C359.417 45.3265 357.689 44.8145 356.28 43.9824C354.744 45.3265 353.784 46.4786 353.784 47.9507C353.784 49.6788 354.04 51.3429 360.249 51.3429ZM360.633 22.6689C356.408 22.6689 354.744 27.0212 354.744 31.5655C354.744 36.8139 356.729 43.2783 362.041 43.2783C366.009 43.2783 367.865 39.6941 367.865 34.7657C367.865 29.2613 365.689 22.6689 360.633 22.6689ZM360.313 67.4081C368.569 67.4081 373.626 62.8637 373.626 58.7034C373.626 55.6312 371.706 54.9272 366.777 54.9272H359.929C358.521 54.9272 357.305 54.8632 356.28 54.6712C353.4 56.5273 350.968 58.8955 350.968 61.5836C350.968 64.6559 353.912 67.4081 360.313 67.4081Z" fill="white"/>
<path d="M319.742 55.3109V53.9668C323.391 53.9668 323.903 53.1347 323.903 49.1664V27.8529C323.903 23.8206 323.967 23.1166 320.19 24.6527L319.678 23.3726L326.591 20.5564L327.423 21.2604V26.6368H327.615C330.367 23.0526 332.927 20.5564 336.768 20.5564C341.312 20.5564 343.232 24.0126 343.232 29.197V49.1664C343.232 53.1347 343.68 53.9668 347.328 53.9668V55.3109H335.68V53.9668C339.264 53.9668 339.712 53.1347 339.712 49.1664V29.389C339.712 25.5488 338.112 23.7566 335.488 23.7566C332.415 23.7566 329.983 25.8688 327.423 28.813V49.1664C327.423 53.1347 327.871 53.9668 331.455 53.9668V55.3109H319.742Z" fill="white"/>
<path d="M310.054 12.94C308.262 12.94 306.917 11.5959 306.917 9.9318C306.917 8.20367 308.262 6.92358 310.054 6.92358C311.782 6.92358 313.126 8.20367 313.126 9.9318C313.126 11.5959 311.782 12.94 310.054 12.94ZM312.422 21.2606V49.1666C312.422 53.1349 312.87 53.9669 316.646 53.9669V55.311H304.677V53.9669C308.39 53.9669 308.902 53.1349 308.902 49.1666V27.8531C308.902 23.8208 308.902 23.1167 305.317 24.5248L304.805 23.2447L309.478 21.3886L311.654 20.5566L312.422 21.2606Z" fill="white"/>
<path d="M297.239 29.133V49.1664C297.239 53.1347 297.687 53.9668 301.335 53.9668V55.3109H289.75V53.9668C293.27 53.9668 293.719 53.1347 293.719 49.1664V29.325C293.719 25.4847 292.246 23.7566 289.686 23.7566C286.998 23.7566 284.758 25.6768 282.518 28.557V29.133V49.1664C282.518 53.1347 282.966 53.9668 286.486 53.9668V55.3109H275.029V53.9668C278.549 53.9668 278.997 53.1347 278.997 49.1664V29.325C278.997 25.4847 277.525 23.7566 274.965 23.7566C272.213 23.7566 269.909 25.8048 267.605 28.813V49.1664C267.605 53.1347 268.053 53.9668 271.573 53.9668V55.3109H259.924V53.9668C263.636 53.9668 264.084 53.1347 264.084 49.1664V27.9169C264.084 23.8846 264.148 23.1806 260.436 24.7807L259.86 23.5006L264.724 21.3885L266.709 20.5564L267.605 21.2604V26.6368H267.797C270.101 23.1166 272.661 20.5564 276.373 20.5564C279.958 20.5564 281.814 22.9246 282.326 26.6368H282.518C284.822 23.1166 287.318 20.5564 291.094 20.5564C295.447 20.5564 297.239 24.0126 297.239 29.133Z" fill="white"/>
<path d="M244.466 56.3349C237.361 56.3349 232.433 48.6544 232.433 38.6057C232.433 28.685 236.785 20.5564 244.466 20.5564C251.506 20.5564 256.434 28.2369 256.434 38.2857C256.434 48.2064 252.082 56.3349 244.466 56.3349ZM245.298 54.0948C250.482 54.0948 252.722 47.5023 252.722 41.0379C252.722 32.3332 249.714 22.7966 243.633 22.7966C238.385 22.7966 236.145 29.389 236.145 35.9175C236.145 44.6221 239.153 54.0948 245.298 54.0948Z" fill="white"/>
<path d="M219.364 56.3349C212.707 56.3349 208.931 48.9744 208.931 38.9257C208.931 28.621 212.899 20.5564 220.26 20.5564C225.124 20.5564 228.068 24.1407 228.068 28.429C228.068 30.7971 227.172 32.0772 225.508 32.0772C223.972 32.0772 223.332 30.9891 223.332 29.8371C223.332 28.877 223.78 27.6609 223.78 26.3168C223.78 24.0126 222.436 22.7326 220.196 22.7326C214.819 22.7326 212.643 30.2211 212.643 37.5816C212.643 46.0302 215.459 53.0067 220.516 53.0067C223.268 53.0067 226.66 50.5745 227.748 41.6779H229.092C228.516 51.9826 224.228 56.3349 219.364 56.3349Z" fill="white"/>
<path d="M202.76 41.8059H204.104C203.08 51.9826 198.92 56.3349 193.799 56.3349C187.207 56.3349 183.367 49.1024 183.367 38.9897C183.367 28.813 187.335 20.5564 194.055 20.5564C200.2 20.5564 203.72 27.0209 203.72 36.5575H187.079V37.7736C187.079 46.1582 189.895 53.0707 194.951 53.0707C197.896 53.0707 201.288 50.5745 202.76 41.8059ZM194.119 22.7326C189.959 22.7326 187.783 28.1089 187.207 34.3814H199.944C199.944 28.557 198.408 22.7326 194.119 22.7326Z" fill="white"/>
<path d="M161.466 55.3111H145.465V53.967C151.545 53.967 152.121 53.0709 152.121 49.1666V10.2519C152.121 6.34758 151.545 5.45152 145.465 5.45152V4.10742H162.106C170.619 4.10742 176.827 8.13971 176.827 16.7803C176.827 23.8208 172.347 28.1091 166.394 28.8772V29.0692C173.883 29.5812 179.323 34.6376 179.323 41.6141C179.323 51.9188 170.811 55.3111 161.466 55.3111ZM156.026 8.33172V27.7251C157.882 27.9811 159.802 27.9811 161.722 27.9811C167.162 27.9811 172.795 24.6529 172.795 16.8443C172.795 9.22779 167.162 6.28358 161.722 6.28358C160.25 6.28358 158.778 6.34758 157.434 6.6036C156.474 6.79561 156.026 7.37165 156.026 8.33172ZM156.026 30.4133V51.0868C156.026 52.7509 157.818 53.1349 161.21 53.1349C167.802 53.1349 175.163 50.8948 175.163 41.6781C175.163 32.5254 166.586 30.1573 161.722 30.1573C159.738 30.1573 157.882 30.1573 156.026 30.4133Z" fill="white"/>
</svg>
